<svg id="SvgjsSvg1017" xmlns="http://www.w3.org/2000/svg" version="1.1" xmlns:xlink="http://www.w3.org/1999/xlink" xmlns:svgjs="http://svgjs.com/svgjs" width="12" height="10"><defs id="SvgjsDefs1018"></defs><path id="SvgjsPath1019" d="M1109.05 335.026C1108.75 335.33 1108.3999999999999 335.57 1108.02 335.737C1107.62 335.911 1107.19 336 1106.76 336L1098.91 336C1098.41 336 1098 335.581 1098 335.066C1098 334.54999999999995 1098.41 334.13199999999995 1098.91 334.13199999999995L1106.76 334.13199999999995C1107.14 334.13199999999995 1107.49 333.97999999999996 1107.76 333.70599999999996C1108.03 333.431 1108.17 333.068 1108.17 332.68299999999994L1108.17 331.4749999999999C1108.17 331.0909999999999 1108.03 330.7279999999999 1107.76 330.4529999999999C1107.49 330.17799999999994 1107.14 330.02699999999993 1106.76 330.02699999999993L1103.3 330.02699999999993L1103.84 330.5759999999999C1104.1999999999998 330.9409999999999 1104.1999999999998 331.5329999999999 1103.84 331.8979999999999C1103.48 332.2619999999999 1102.8999999999999 332.2619999999999 1102.55 331.8979999999999L1100.45 329.7459999999999C1100.0900000000001 329.3809999999999 1100.0900000000001 328.78899999999993 1100.45 328.4239999999999L1102.55 326.27399999999994C1102.73 326.0919999999999 1102.96 325.99999999999994 1103.19 325.99999999999994C1103.43 325.99999999999994 1103.66 326.09099999999995 1103.8400000000001 326.27399999999994C1104.19 326.6379999999999 1104.19 327.22999999999996 1103.8400000000001 327.59499999999997L1103.2900000000002 328.15799999999996L1106.7600000000002 328.15799999999996C1107.1900000000003 328.15799999999996 1107.6200000000001 328.246 1108.0200000000002 328.41999999999996C1108.4100000000003 328.58699999999993 1108.7500000000002 328.828 1109.0500000000002 329.13199999999995C1109.3500000000001 329.4359999999999 1109.5800000000002 329.79099999999994 1109.7400000000002 330.18399999999997C1109.9100000000003 330.594 1110.0000000000002 331.02799999999996 1110.0000000000002 331.474L1110.0000000000002 332.682C1110.0000000000002 333.12800000000004 1109.9100000000003 333.563 1109.7400000000002 333.97200000000004C1109.5800000000002 334.367 1109.3500000000001 334.72100000000006 1109.0500000000002 335.026Z " fill="#215cc9" transform="matrix(1,0,0,1,-1098,-326)"></path></svg>