<svg id="SvgjsSvg1035" xmlns="http://www.w3.org/2000/svg" version="1.1" xmlns:xlink="http://www.w3.org/1999/xlink" xmlns:svgjs="http://svgjs.com/svgjs" width="129" height="129"><defs id="SvgjsDefs1036"><clipPath id="SvgjsClipPath1040"><path id="SvgjsPath1039" d="M95 654L95 525L224 525L224 654ZM98.9999 589.999C98.9999 623.6890000000001 126.31099999999999 650.999 160 650.999C193.689 650.999 221 623.6890000000001 221 589.999C221 556.3100000000001 193.689 528.999 160 528.999C126.311 528.999 98.9999 556.3100000000001 98.9999 589.999Z " fill="#ffffff"></path></clipPath></defs><path id="SvgjsPath1037" d="M160 528.999C193.689 528.999 221 556.3100000000001 221 589.999C221 623.6890000000001 193.689 650.999 160 650.999C126.311 650.999 98.9999 623.6890000000001 98.9999 589.999C98.9999 556.3100000000001 126.31099999999999 528.999 160 528.999Z " fill="#ffffff" transform="matrix(1,0,0,1,-95,-525)"></path><path id="SvgjsPath1038" d="M160 528.999C193.689 528.999 221 556.3100000000001 221 589.999C221 623.6890000000001 193.689 650.999 160 650.999C126.311 650.999 98.9999 623.6890000000001 98.9999 589.999C98.9999 556.3100000000001 126.31099999999999 528.999 160 528.999Z " fill-opacity="0" fill="#ffffff" stroke-dasharray="0" stroke-linejoin="round" stroke-linecap="round" stroke-opacity="0.74" stroke="#ff8a34" stroke-miterlimit="50" stroke-width="6" clip-path="url(&quot;#SvgjsClipPath1040&quot;)" transform="matrix(1,0,0,1,-95,-525)"></path></svg>