<svg id="SvgjsSvg1000" xmlns="http://www.w3.org/2000/svg" version="1.1" xmlns:xlink="http://www.w3.org/1999/xlink" xmlns:svgjs="http://svgjs.com/svgjs" width="17" height="18"><defs id="SvgjsDefs1001"></defs><path id="SvgjsPath1007" d="M383.818 954.993L369.18199999999996 954.993C368.52799999999996 954.993 367.99999999999994 954.4530000000001 367.99999999999994 953.7860000000001L367.99999999999994 948.469L370.35999999999996 948.469L370.35999999999996 952.5780000000001L382.63999999999993 952.5780000000001L382.63999999999993 948.469L384.99999999999994 948.469L384.99999999999994 953.7860000000001C384.99999999999994 954.4530000000001 384.4719999999999 954.993 383.8179999999999 954.993ZM380.125 943.781C380.125 943.781 380.634 943.261 379.957 943.261C379.28 943.261 378.2 943.261 378.2 943.261C378.2 943.261 378.2 942.962 378.2 942.501C378.2 941.0799999999999 378.2 938.313 378.2 937.256C378.2 937.256 378.207 937.007 377.893 937.007C377.578 937.007 375.65299999999996 937.007 375.21299999999997 937.007C374.777 937.007 374.852 937.303 374.852 937.303C374.852 938.393 374.852 941.067 374.852 942.537C374.852 943.052 374.852 943.3860000000001 374.852 943.3860000000001C374.852 943.3860000000001 373.506 943.3860000000001 372.948 943.3860000000001C372.39099999999996 943.3860000000001 372.905 943.883 372.905 943.883L376.284 948.062C376.284 948.062 376.56 948.394 376.849 948.097C377.25 947.687 380.125 943.781 380.125 943.781Z " fill="#3571e4" transform="matrix(1,0,0,1,-368,-937)"></path></svg>