<svg id="SvgjsSvg1044" xmlns="http://www.w3.org/2000/svg" version="1.1" xmlns:xlink="http://www.w3.org/1999/xlink" xmlns:svgjs="http://svgjs.com/svgjs" width="12" height="23"><defs id="SvgjsDefs1045"></defs><path id="SvgjsPath1046" d="M1146.93 3202.82L1142.8100000000002 3202.82L1142.8100000000002 3200.8500000000004C1142.8100000000002 3200.8500000000004 1142.5800000000002 3198.9800000000005 1143.92 3198.9800000000005C1145.42 3198.9800000000005 1146.63 3198.9800000000005 1146.63 3198.9800000000005L1146.63 3194.9500000000003L1142.0100000000002 3194.9500000000003C1142.0100000000002 3194.9500000000003 1138.1400000000003 3194.9300000000003 1138.1400000000003 3198.7400000000002C1138.1400000000003 3199.55 1138.1400000000003 3201.0400000000004 1138.1300000000003 3202.82L1135.4800000000002 3202.82L1135.4800000000002 3206.07L1138.1300000000003 3206.07C1138.1100000000004 3211.23 1138.0900000000004 3216.9900000000002 1138.0900000000004 3216.9900000000002L1142.8100000000004 3216.9900000000002L1142.8100000000004 3206.07L1145.9300000000003 3206.07Z " fill="#3a579c" transform="matrix(1,0,0,1,-1135,-3194)"></path></svg>