<svg id="SvgjsSvg1000" xmlns="http://www.w3.org/2000/svg" version="1.1" xmlns:xlink="http://www.w3.org/1999/xlink" xmlns:svgjs="http://svgjs.com/svgjs" width="39" height="38"><defs id="SvgjsDefs1001"></defs><path id="SvgjsPath1007" d="M1142.7 51.0031C1132.17 51.0031 1123.6100000000001 59.5245 1123.6100000000001 69.9984C1123.6100000000001 80.4722 1132.17 88.993 1142.7 88.993C1153.23 88.993 1161.79 80.4722 1161.79 69.9984C1161.79 59.5245 1153.23 51.0031 1142.7 51.0031ZM1147.45 70.6674L1144.3400000000001 70.6674C1144.3400000000001 75.6044 1144.3400000000001 81.6832 1144.3400000000001 81.6832L1139.7400000000002 81.6832C1139.7400000000002 81.6832 1139.7400000000002 75.663 1139.7400000000002 70.6674L1137.5500000000002 70.6674L1137.5500000000002 66.7738L1139.7400000000002 66.7738L1139.7400000000002 64.25619999999999C1139.7400000000002 62.452799999999996 1140.6000000000001 59.63459999999999 1144.3800000000003 59.63459999999999L1147.7900000000004 59.64759999999999L1147.7900000000004 63.42659999999999C1147.7900000000004 63.42659999999999 1145.7200000000005 63.42659999999999 1145.3200000000004 63.42659999999999C1144.9100000000003 63.42659999999999 1144.3400000000004 63.627199999999995 1144.3400000000004 64.487L1144.3400000000004 66.7748L1147.8500000000004 66.7748Z " fill="#ffffff" transform="matrix(1,0,0,1,-1123,-51)"></path></svg>