<svg id="SvgjsSvg1032" xmlns="http://www.w3.org/2000/svg" version="1.1" xmlns:xlink="http://www.w3.org/1999/xlink" xmlns:svgjs="http://svgjs.com/svgjs" width="182" height="73"><defs id="SvgjsDefs1033"></defs><path id="SvgjsPath1034" d="M94.8675 53.9806L95.1453 53.4294L95.3309 54.0161C95.6619 55.059400000000004 96.1238 56.0471 96.6978 56.9598L96.7656 57.0689L96.7155 57.1896C95.0253 61.1295 94.0901 65.4581 94.0901 69.9988C94.0901 79.08500000000001 97.83290000000001 87.33 103.873 93.30760000000001C109.915 99.28490000000001 118.24900000000001 102.99000000000001 127.435 102.99000000000001C136.617 102.99000000000001 144.952 99.28490000000001 150.993 93.30760000000001C157.034 87.33000000000001 160.779 79.08500000000001 160.779 69.9988C160.779 68.5244 160.679 67.07390000000001 160.484 65.6506L160.447 65.3732L160.731 65.3686C161.564 65.3579 162.393 65.2814 163.219 65.1362L163.476 65.089L163.509 65.3483C163.71099999999998 66.87039999999999 163.815 68.423 163.815 69.99879999999999C163.815 89.82739999999998 147.472 105.99799999999999 127.435 105.99799999999999C107.392 105.99799999999999 91.05000000000001 89.82739999999998 91.05000000000001 69.99879999999999C91.05000000000001 64.25049999999999 92.4265 58.80899999999999 94.8675 53.98059999999999ZM99.7184 73.8313C100.825 72.2153 102.422 71.3805 104.309 71.3805C105.701 71.3805 107.094 72.0064 108.445 73.2574C110.741 75.4487 112.175 77.1695 113.854 77.1695C115.493 77.1695 116.56 75.8667 116.56 73.6752C116.56 73.1534 116.517 72.8929 116.312 72.8929C116.02499999999999 72.8929 115.493 73.41369999999999 114.756 73.41369999999999C113.691 73.41369999999999 112.994 72.52669999999999 112.994 71.11939999999998C112.994 69.50259999999999 114.1 68.19919999999999 115.617 68.19919999999999C117.665 68.19919999999999 119.058 70.3899 119.058 73.98819999999999C119.058 78.4203 116.641 81.66269999999999 113.52600000000001 81.66269999999999C111.02700000000002 81.66269999999999 109.71700000000001 80.09019999999998 108.11800000000001 78.73409999999998C106.02900000000001 76.96039999999998 104.30900000000001 75.70899999999999 102.546 75.70899999999999C100.866 75.70899999999999 99.8823 76.69989999999999 99.8823 77.27319999999999C99.8823 77.48289999999999 101.48 77.3774 101.48 79.62129999999999C101.48 80.8723 100.62 81.82019999999999 99.39 81.82019999999999C97.6286 81.82019999999999 96.2773 79.51429999999999 96.2773 75.96939999999998C96.2773 71.27629999999998 98.86099999999999 66.63989999999998 103.161 64.13079999999998C105.807 62.58819999999998 108.292 61.69589999999998 110.324 60.70519999999998C113.789 58.983599999999974 117.67999999999999 55.34159999999998 117.602 50.264899999999976C117.524 45.18959999999998 113.399 41.349199999999975 108.24600000000001 41.349199999999975C103.09200000000001 41.349199999999975 98.88940000000001 45.35449999999997 98.94000000000001 50.32599999999998C98.96650000000001 51.97289999999998 100.141 53.88999999999998 100.76500000000001 53.22069999999998C100.85900000000001 53.12129999999998 101.06800000000001 52.93079999999998 101.68500000000002 53.07449999999998C102.32900000000002 53.22629999999998 102.99700000000001 54.06609999999998 102.99700000000001 55.47439999999998C102.99700000000001 57.35109999999998 101.80800000000002 58.707799999999985 100.12900000000002 58.707799999999985C99.31720000000001 58.707799999999985 98.62870000000002 58.333199999999984 98.12690000000002 57.682799999999986C96.48560000000002 55.61499999999999 95.49980000000002 53.03309999999998 95.49980000000002 50.23079999999999C95.49980000000002 43.438999999999986 101.24700000000003 37.901499999999984 108.29200000000002 37.901499999999984C115.33800000000002 37.901499999999984 121.11000000000001 43.407099999999986 121.08500000000001 50.23079999999999C121.057 57.05319999999999 116.87100000000001 62.23739999999999 111.25800000000001 64.59259999999999C110.70200000000001 64.8304 110.12100000000001 65.07289999999999 109.51100000000001 65.3312C103.36500000000001 67.9387 99.8418 69.5548 99.7184 73.8313ZM154.505 69.1756C156.912 76.61880000000001 152.74099999999999 84.6328 145.22299999999998 87.0177C137.69699999999997 89.3996 129.601 85.27550000000001 127.19099999999999 77.83120000000001C124.77899999999998 70.38780000000001 128.94899999999998 62.37280000000001 136.47199999999998 59.98890000000001C143.99599999999998 57.60640000000001 152.09499999999997 61.73210000000001 154.505 69.1756ZM170.717 60.4403C165.156 65.9894 156.04100000000003 66.0256 150.437 60.5208C144.828 55.016600000000004 144.792 46.002900000000004 150.35600000000002 40.4545C155.91800000000003 34.906600000000005 165.02900000000002 34.869200000000006 170.63700000000003 40.3736C176.24700000000004 45.8776 176.28000000000003 54.892300000000006 170.71700000000004 60.44030000000001ZM120.691 58.998C120.935 58.7891 121.423 58.275299999999994 122.616 57.351699999999994C123.823 56.417899999999996 125.032 57.09519999999999 125.015 59.40539999999999C125.012 59.71629999999999 124.926 61.16279999999999 124.926 63.641299999999994L124.926 86.21619999999999C124.926 88.85179999999998 125.486 89.83379999999998 127.42 89.83379999999998C128.40800000000002 89.83379999999998 129.31 89.62609999999998 130.08 89.62609999999998C131.287 89.62609999999998 131.887 90.14379999999998 131.887 91.48659999999998C131.887 92.88159999999998 131.2 93.45929999999998 129.78 93.45929999999998C129.006 93.45929999999998 126.68900000000001 93.08789999999999 122.778 93.08789999999999C118.825 93.08789999999999 116.63300000000001 93.71659999999999 115.94500000000001 93.71659999999999C114.74400000000001 93.71659999999999 114.012 92.93139999999998 114.012 91.84709999999998C114.012 90.50349999999999 114.828 89.62609999999998 116.289 89.62609999999998C117.107 89.62609999999998 117.836 89.78179999999998 118.523 89.78179999999998C120.585 89.78179999999998 121.015 88.74859999999998 121.015 86.27019999999997L121.015 64.40319999999997C121.012 62.79339999999997 119.598 63.89779999999997 118.505 64.82179999999997C117.877 65.35789999999997 117.38499999999999 65.91949999999997 116.789 66.42589999999997C115.804 67.25949999999997 115.07600000000001 67.18299999999996 114.506 66.21039999999996C113.963 65.28279999999997 114.213 64.18519999999997 115.197 63.35329999999996C115.968 62.69659999999996 116.899 62.22319999999996 117.70700000000001 61.53859999999996C119.10400000000001 60.35389999999996 119.99000000000001 59.59579999999996 120.691 58.99799999999996ZM59.0754 64.6569L59.0754 76.19069999999999C59.0754 77.2396 59.386700000000005 77.8818 60.004400000000004 77.71629999999999L60.5302 77.57529999999998C61.2504 77.38039999999998 61.7487 77.98349999999998 61.7487 78.54809999999999C61.7487 79.2391 61.3864 79.6292 60.6357 79.6292C59.9623 79.6292 60.0083 79.3425 58.2464 79.3425L37.5067 79.3425C35.744800000000005 79.3425 35.7914 79.6292 35.1186 79.6292C34.3667 79.6292 34.0039 79.2391 34.0039 78.54809999999999C34.0039 77.98349999999999 34.5013 77.3804 35.222500000000004 77.57529999999998L35.7498 77.71629999999999C36.3666 77.88179999999998 36.6766 77.2396 36.6766 76.19069999999999L36.6766 64.6569C36.6766 63.70799999999999 36.4442 62.981199999999994 35.523 63.160599999999995L35.0636 63.2484C34.4283 63.3717 34 62.890699999999995 34 62.3262C34 61.6338 34.4408 61.2743 35.2969 61.2743C36.022 61.2743 35.8487 61.5053 37.4279 61.5053C39.1382 61.5053 39.7612 61.2743 40.4607 61.2743C41.2892 61.2743 41.755900000000004 61.6857 41.755900000000004 62.376599999999996C41.755900000000004 62.8392 41.336400000000005 63.336999999999996 40.87520000000001 63.2731L40.30460000000001 63.1978C39.30210000000001 63.0634 39.086600000000004 63.6074 39.086600000000004 64.65690000000001L39.086600000000004 76.1907C39.086600000000004 77.26740000000001 39.3194 77.65100000000001 40.3295 77.65100000000001C41.3393 77.65100000000001 41.1587 77.4728 42.8678 77.4728C44.526500000000006 77.4728 45.043800000000005 77.65100000000001 45.4317 77.65100000000001C46.4429 77.65100000000001 46.6748 77.26740000000001 46.6748 76.1907L46.6748 64.65690000000001C46.6748 63.607400000000005 46.6675 63.097100000000005 45.661699999999996 63.19780000000001L44.8927 63.27310000000001C44.429899999999996 63.32170000000001 44.0136 62.839200000000005 44.0136 62.3766C44.0136 61.685700000000004 44.4798 61.274300000000004 45.3084 61.274300000000004C46.007799999999996 61.274300000000004 46.1578 61.479800000000004 47.8777 61.479800000000004C49.595299999999995 61.479800000000004 49.7459 61.274300000000004 50.4449 61.274300000000004C51.2728 61.274300000000004 51.7395 61.685700000000004 51.7395 62.3766C51.7395 62.839200000000005 51.3223 63.32170000000001 50.859899999999996 63.27310000000001L50.0916 63.19780000000001C49.0863 63.097100000000005 49.078 63.607400000000005 49.078 64.65690000000001L49.078 76.1907C49.078 77.26740000000001 49.3102 77.65100000000001 50.32040000000001 77.65100000000001C50.709500000000006 77.65100000000001 51.22610000000001 77.4728 52.884800000000006 77.4728C54.59460000000001 77.4728 54.412800000000004 77.65100000000001 55.423500000000004 77.65100000000001C56.43320000000001 77.65100000000001 56.6655 77.26740000000001 56.6655 76.1907L56.6655 64.65690000000001C56.6655 63.607400000000005 56.449400000000004 63.06340000000001 55.4491 63.19780000000001L54.8785 63.27310000000001C54.4163 63.337 53.9972 62.839200000000005 53.9972 62.3766C53.9972 61.685700000000004 54.4629 61.274300000000004 55.2924 61.274300000000004C55.9916 61.274300000000004 56.6149 61.505300000000005 58.323100000000004 61.505300000000005C59.9044 61.505300000000005 59.730500000000006 61.274300000000004 60.4562 61.274300000000004C61.312000000000005 61.274300000000004 61.7509 61.6338 61.7509 62.32620000000001C61.7509 62.89070000000001 61.3253 63.371700000000004 60.690200000000004 63.248400000000004L60.2308 63.1606C59.3082 62.9812 59.0754 63.708000000000006 59.0754 64.65690000000001ZM137.473 63.0789C131.673 64.9182 128.453 71.0993 130.30900000000003 76.8409C132.17100000000002 82.5831 138.42100000000002 85.76650000000001 144.223 83.9277C150.02200000000002 82.0878 153.24 75.9059 151.38000000000002 70.1645C149.52100000000002 64.4223 143.276 61.2413 137.473 63.078900000000004ZM168.326 42.6765C164 38.431599999999996 156.976 38.4589 152.684 42.739C148.391 47.0197 148.424 53.9719 152.746 58.2187C157.07000000000002 62.4644 164.098 62.4367 168.39100000000002 58.155C172.67800000000003 53.8761 172.65500000000003 46.9225 168.32600000000002 42.676500000000004ZM189.154 64.0258L189.154 75.5574C189.154 76.6089 189.463 77.2497 190.083 77.0856L190.605 76.9426C191.327 76.7469 191.825 77.3517 191.825 77.9158C191.825 78.6055 191.463 78.9978 190.714 78.9978C190.04 78.9978 190.085 78.7102 187.936 78.7102C185.793 78.7102 185.84 78.9978 185.162 78.9978C184.40800000000002 78.9978 184.048 78.60549999999999 184.048 77.9158C184.048 77.35170000000001 184.546 76.74690000000001 185.266 76.9426L185.79299999999998 77.0856C186.41299999999998 77.2497 186.72199999999998 76.6089 186.72199999999998 75.5574L186.72199999999998 64.0258C186.72199999999998 62.742000000000004 186.30399999999997 62.666700000000006 185.10599999999997 62.6422L182.51699999999997 62.6422C181.31699999999998 62.666700000000006 180.90299999999996 62.742000000000004 180.90299999999996 64.0258L180.89399999999998 67.0249C180.89399999999998 73.0483 180.60999999999999 79.1489 175.09499999999997 79.1489C172.53099999999998 79.1489 170.92299999999997 77.3517 170.92299999999997 75.4563C170.92299999999997 74.2774 171.80399999999997 73.5346 172.76199999999997 73.5346C173.82399999999998 73.5346 174.31699999999998 74.1491 174.31699999999998 75.02029999999999C174.31699999999998 75.7378 173.77299999999997 76.30199999999999 173.564 76.45589999999999C173.564 76.68539999999999 173.953 77.27459999999999 175.22199999999998 77.27459999999999C177.44699999999997 77.27459999999999 178.48499999999999 74.8911 178.48499999999999 68.3312L178.48499999999999 64.02579999999999C178.48499999999999 63.83979999999999 178.658 62.26699999999999 177.31599999999997 62.52769999999999L176.85399999999998 62.61569999999999C176.218 62.73899999999999 175.79799999999997 62.25889999999999 175.79799999999997 61.69389999999999C175.79799999999997 61.00169999999999 176.23299999999998 60.64289999999999 177.09099999999998 60.64289999999999C177.72699999999998 60.64289999999999 177.66899999999998 60.786199999999994 179.02299999999997 60.82209999999999L187.99299999999997 60.82209999999999C188.66699999999997 60.82209999999999 190.14699999999996 60.64289999999999 190.53399999999996 60.64289999999999C191.38999999999996 60.64289999999999 191.83399999999997 61.00169999999999 191.83399999999997 61.69389999999999C191.83399999999997 62.25889999999999 191.40299999999996 62.73899999999999 190.76699999999997 62.61569999999999L190.31199999999995 62.52769999999999C189.38699999999994 62.34949999999999 189.15399999999997 63.07589999999999 189.15399999999997 64.02579999999999ZM86.1658 75.7112L86.1658 76.40740000000001C86.1658 78.56360000000001 85.015 79.71830000000001 82.48790000000001 79.71830000000001C81.27100000000002 79.71830000000001 80.08010000000002 79.20030000000001 79.6907 78.07320000000001C79.30260000000001 76.94500000000001 78.6033 73.12750000000001 77.59190000000001 71.97370000000001C76.68620000000001 70.89680000000001 75.13250000000001 70.4103 73.16490000000002 70.4103C72.07580000000002 70.4103 71.99810000000002 70.7699 71.99810000000002 71.3062L71.99570000000003 71.31750000000001L71.99300000000002 76.0477C71.98800000000003 77.09880000000001 72.30020000000002 77.74140000000001 72.91750000000002 77.57530000000001L73.44150000000002 77.43230000000001C74.16400000000002 77.23780000000001 74.66130000000003 77.84240000000001 74.66130000000003 78.40550000000002C74.66130000000003 79.09850000000002 74.29860000000002 79.48750000000001 73.54660000000003 79.48750000000001C72.87420000000003 79.48750000000001 72.91860000000003 79.37290000000002 70.78890000000003 79.34870000000001C68.65730000000002 79.3729 68.70300000000003 79.48750000000001 68.02830000000003 79.48750000000001C67.27760000000004 79.48750000000001 66.91470000000002 79.09850000000002 66.91470000000002 78.40550000000002C66.91470000000002 77.84240000000001 67.41150000000002 77.23780000000002 68.13450000000003 77.43230000000001L68.66000000000003 77.57530000000001C69.27750000000003 77.74140000000001 69.58910000000003 77.09880000000001 69.58910000000003 76.0477L69.58910000000003 64.51570000000001C69.58910000000003 63.56580000000001 69.35400000000003 62.83920000000001 68.43290000000003 63.01780000000001L67.97560000000003 63.10580000000001C67.33890000000002 63.22930000000001 66.91250000000002 62.74800000000001 66.91250000000002 62.18400000000001C66.91250000000002 61.49160000000001 67.35310000000003 61.13330000000001 68.20660000000002 61.13330000000001C68.93290000000002 61.13330000000001 68.75960000000002 61.364100000000015 70.33940000000003 61.364100000000015C72.04860000000002 61.364100000000015 72.67200000000003 61.13330000000001 73.37090000000002 61.13330000000001C74.20010000000002 61.13330000000001 74.66630000000002 61.54320000000001 74.66630000000002 62.23560000000001C74.66630000000002 62.69620000000001 74.24840000000002 63.19360000000001 73.78560000000002 63.132900000000014L73.21550000000002 63.05520000000001C72.21410000000002 62.92120000000001 71.99690000000002 63.464700000000015 71.99690000000002 64.51570000000001L71.99640000000002 68.15240000000001L71.99810000000002 68.15520000000001C71.99810000000002 68.8203 72.20570000000002 69.05250000000001 72.54250000000002 69.05250000000001C74.19900000000001 69.05250000000001 74.92470000000002 68.6423 75.39150000000002 68.2064C76.55670000000002 67.1041 76.47890000000002 65.54050000000001 77.38570000000003 63.3637C78.18810000000003 61.4149 80.02680000000002 61.031400000000005 80.90800000000003 61.031400000000005C82.69440000000003 61.031400000000005 84.09370000000003 61.8753 84.09370000000003 63.74700000000001C84.09370000000003 64.7228 83.39520000000003 65.33600000000001 82.61770000000003 65.33600000000001C81.76280000000003 65.33600000000001 81.09020000000002 64.8752 81.09020000000002 64.1316C81.09020000000002 63.337 81.42480000000002 63.234700000000004 81.68430000000002 63.055200000000006C81.63320000000002 62.953700000000005 81.40050000000002 62.721900000000005 80.98530000000002 62.721900000000005C79.92450000000002 62.721900000000005 79.43160000000002 63.41330000000001 79.09550000000003 64.6695L78.62970000000003 66.4372C78.29250000000003 67.7458 77.54010000000002 68.56540000000001 76.45270000000002 69.2316L76.47890000000002 69.3847C77.95530000000002 69.5131 79.74170000000002 70.5899 80.38970000000002 71.71719999999999C81.81390000000002 74.22919999999999 81.06360000000002 77.7918 83.08350000000002 77.7918C84.30940000000001 77.7918 84.45600000000002 76.58879999999999 84.45600000000002 75.6584C84.45600000000002 75.0865 84.68880000000001 74.6336 85.31050000000002 74.6336C85.88180000000001 74.6336 86.16580000000002 75.0186 86.16580000000002 75.7112ZM127.065 37.0083C123.056 37.0526 119.213 37.8043 115.65599999999999 39.1413L115.54199999999999 39.1833L115.439 39.120000000000005C114.47099999999999 38.5401 113.42299999999999 38.075500000000005 112.315 37.744200000000006L111.682 37.5534L112.284 37.2792C116.899 35.1755 122.03200000000001 33.999500000000005 127.435 33.999500000000005C135.349 33.999500000000005 142.687 36.5264 148.667 40.801L148.886 40.9547L148.719 41.1586C148.192 41.8116 147.73 42.4984 147.335 43.2106L147.19400000000002 43.4567L146.96400000000003 43.291199999999996C141.52700000000002 39.38549999999999 134.86800000000002 37.058699999999995 127.67300000000003 37.006899999999995ZM215.999 78.156C215.999 78.69330000000001 215.683 79.18140000000001 214.783 79.15990000000001C214.261 79.1469 214.16099999999997 78.85060000000001 211.51999999999998 78.87150000000001C210.15099999999998 78.88470000000001 209.84199999999998 79.15990000000001 209.278 79.15990000000001C208.553 79.15990000000001 208.18599999999998 78.79560000000001 208.18599999999998 78.12950000000001C208.18599999999998 77.54010000000001 208.60399999999998 77.03500000000001 209.35099999999997 77.0978L210.33099999999996 77.1768C210.93799999999996 77.2254 211.12299999999996 76.7915 211.09999999999997 76.4372L210.09799999999996 73.3888C209.90899999999996 72.8189 209.65299999999996 72.5687 209.26899999999995 72.5687L203.82099999999994 72.5687C203.43199999999993 72.5687 203.18499999999995 72.81890000000001 202.98999999999995 73.3888L201.98999999999995 76.4372C201.96499999999995 76.7915 202.15199999999996 77.22540000000001 202.75799999999995 77.1768L203.73399999999995 77.0978C204.48599999999996 77.03500000000001 204.90099999999995 77.54010000000001 204.90099999999995 78.12950000000001C204.90099999999995 78.79560000000001 204.54099999999994 79.15990000000001 203.81199999999995 79.15990000000001C203.24499999999995 79.15990000000001 202.93899999999996 78.88470000000001 201.56899999999996 78.87150000000001C198.92699999999996 78.85060000000001 198.82699999999997 79.14690000000002 198.31099999999995 79.15990000000001C197.40399999999994 79.18140000000001 197.08599999999996 78.69330000000001 197.08599999999996 78.156C197.08599999999996 77.61710000000001 197.45799999999997 77.07690000000001 197.99799999999996 77.07690000000001L198.31099999999995 77.07690000000001C199.19299999999996 77.07690000000001 199.28199999999995 77.05040000000001 199.83399999999995 75.59270000000001L204.72599999999994 62.62490000000001C204.82999999999996 61.70250000000001 205.39899999999994 60.805000000000014 206.54099999999994 60.805000000000014C207.68799999999993 60.805000000000014 208.25699999999995 61.702500000000015 208.36199999999994 62.62490000000001L213.25599999999994 75.59270000000001C213.80699999999993 77.05040000000001 213.88699999999994 77.07690000000001 214.78299999999993 77.07690000000001L215.09699999999992 77.07690000000001C215.63899999999992 77.07690000000001 215.9989999999999 77.61710000000001 215.9989999999999 78.156ZM131.603 61.7435C130.323 62.851699999999994 128.429 61.698499999999996 127.13300000000001 59.5595C126.081 57.8244 125.18800000000002 55.5254 127.17900000000002 54.5309C128.94600000000003 53.6467 130.918 54.9116 133.05200000000002 55.0938C133.39800000000002 54.5946 133.90600000000003 54.1997 134.53400000000002 54.002300000000005C135.15900000000002 53.80440000000001 135.80700000000002 53.83070000000001 136.383 54.037000000000006C138.01500000000001 52.66250000000001 138.877 50.499900000000004 140.834 50.20140000000001C143.035 49.869600000000005 143.66 52.25350000000001 143.82 54.27000000000001C144.025 56.75680000000001 143.158 58.78470000000001 141.46599999999998 58.616200000000006C140.01699999999997 58.473400000000005 139.19199999999998 58.204600000000006 137.878 58.1482C137.535 58.728300000000004 136.97699999999998 59.1905 136.28599999999997 59.4106C135.59199999999998 59.6306 134.86799999999997 59.572700000000005 134.24599999999998 59.3003C133.212 60.1002 132.694 60.7936 131.60299999999998 61.7435ZM157.682 56.8761C155.76299999999998 56.0071 154.517 54.2618 154.214 52.334900000000005L155.349 51.91480000000001C155.52499999999998 53.55890000000001 156.552 55.07490000000001 158.172 55.80970000000001C159.79999999999998 56.5444 161.628 56.31830000000001 162.998 55.375800000000005L163.42399999999998 56.502500000000005C161.748 57.532900000000005 159.599 57.74360000000001 157.682 56.87610000000001ZM143.267 80.9758C141.253 81.61330000000001 139.148 81.15110000000001 137.60999999999999 79.93190000000001L138.166 78.86240000000001C139.415 79.9594 141.206 80.3995 142.901 79.8588C144.603 79.3206 145.8 77.9354 146.178 76.3245L147.259 76.8745C146.72099999999998 78.7524 145.27499999999998 80.33919999999999 143.267 80.97579999999999ZM208.904 70.5939C208.904 70.4668 208.851 70.3129 208.771 70.058L206.541 63.41930000000001L204.31199999999998 70.058C204.237 70.31290000000001 204.18599999999998 70.4668 204.18599999999998 70.5939C204.18599999999998 70.85180000000001 204.36999999999998 70.87620000000001 204.83399999999997 70.87620000000001L208.253 70.87620000000001C208.72 70.87620000000001 208.904 70.85180000000001 208.904 70.5939ZM166.498 52.0607C165.89999999999998 53.357099999999996 164.564 54.030199999999994 163.51999999999998 53.5571C162.48 53.0865 162.11999999999998 51.646899999999995 162.71699999999998 50.3495C163.31799999999998 49.0527 164.65699999999998 48.379799999999996 165.69799999999998 48.851C166.73899999999998 49.3229 167.09799999999998 50.7633 166.498 52.0607ZM159.378 48.8366C158.777 50.131899999999995 157.438 50.805699999999995 156.398 50.334999999999994C155.356 49.86379999999999 154.996 48.422599999999996 155.594 47.12559999999999C156.194 45.83039999999999 157.528 45.155199999999994 158.571 45.62829999999999C159.612 46.09789999999999 159.972 47.54039999999999 159.378 48.83659999999999ZM146.51 71.5406C146.94799999999998 72.8985 146.416 74.2865 145.325 74.6318C144.236 74.9779 142.987 74.1527 142.546 72.7946C142.111 71.438 142.64 70.0492 143.72899999999998 69.7029C144.821 69.359 146.069 70.1828 146.51 71.5406ZM139.046 73.9048C139.488 75.26289999999999 138.95399999999998 76.65129999999999 137.861 76.996C136.777 77.3419 135.52499999999998 76.51729999999999 135.08499999999998 75.1597C134.64999999999998 73.8024 135.17799999999997 72.413 136.26999999999998 72.0679C137.35899999999998 71.723 138.60799999999998 72.547 139.046 73.9048Z " fill="#ffffff" transform="matrix(1,0,0,1,-34,-33)"></path></svg>