<svg id="SvgjsSvg1014" xmlns="http://www.w3.org/2000/svg" version="1.1" xmlns:xlink="http://www.w3.org/1999/xlink" xmlns:svgjs="http://svgjs.com/svgjs" width="65" height="22"><defs id="SvgjsDefs1015"></defs><path id="SvgjsPath1016" d="M710.037 1818.7C710.897 1821.39 709.408 1824.28 706.722 1825.14C704.035 1826.01 701.143 1824.5200000000002 700.2819999999999 1821.8300000000002C699.4209999999999 1819.14 700.91 1816.2500000000002 703.597 1815.38C706.284 1814.5200000000002 709.177 1816.0100000000002 710.037 1818.7ZM715.827 1815.55C713.841 1817.55 710.586 1817.56 708.585 1815.58C706.581 1813.59 706.568 1810.33 708.556 1808.33C710.542 1806.33 713.796 1806.31 715.7990000000001 1808.3C717.8020000000001 1810.29 717.8140000000001 1813.54 715.8270000000001 1815.55ZM697.961 1815.03C698.048 1814.95 698.223 1814.77 698.649 1814.43C699.08 1814.1000000000001 699.511 1814.3400000000001 699.505 1815.17C699.504 1815.29 699.473 1815.8100000000002 699.473 1816.7L699.473 1824.8600000000001C699.473 1825.8100000000002 699.673 1826.16 700.3639999999999 1826.16C700.7169999999999 1826.16 701.0389999999999 1826.0900000000001 701.314 1826.0900000000001C701.745 1826.0900000000001 701.9599999999999 1826.2700000000002 701.9599999999999 1826.7600000000002C701.9599999999999 1827.2600000000002 701.7139999999999 1827.4700000000003 701.2069999999999 1827.4700000000003C700.9309999999999 1827.4700000000003 700.1029999999998 1827.3400000000001 698.7059999999999 1827.3400000000001C697.295 1827.3400000000001 696.512 1827.5600000000002 696.2659999999998 1827.5600000000002C695.8369999999999 1827.5600000000002 695.5759999999998 1827.2800000000002 695.5759999999998 1826.89C695.5759999999998 1826.4 695.8669999999998 1826.0900000000001 696.3889999999998 1826.0900000000001C696.6809999999998 1826.0900000000001 696.9419999999998 1826.14 697.1869999999998 1826.14C697.9229999999998 1826.14 698.0769999999998 1825.7700000000002 698.0769999999998 1824.88L698.0769999999998 1816.98C698.0749999999998 1816.4 697.5709999999998 1816.8 697.1799999999997 1817.13C696.9559999999997 1817.3200000000002 696.7799999999997 1817.5300000000002 696.5669999999997 1817.71C696.2159999999997 1818.01 695.9559999999997 1817.98 695.7519999999996 1817.63C695.5579999999997 1817.3000000000002 695.6469999999996 1816.9 695.9989999999996 1816.6000000000001C696.2739999999995 1816.3600000000001 696.6069999999995 1816.19 696.8949999999995 1815.94C697.3939999999996 1815.52 697.7109999999996 1815.24 697.9609999999996 1815.03ZM703.954 1816.5C701.8829999999999 1817.16 700.733 1819.4 701.396 1821.47C702.0609999999999 1823.54 704.293 1824.69 706.365 1824.03C708.436 1823.36 709.586 1821.1299999999999 708.921 1819.06C708.258 1816.99 706.027 1815.84 703.9540000000001 1816.5ZM714.974 1809.13C713.428 1807.6000000000001 710.9200000000001 1807.6100000000001 709.3870000000001 1809.16C707.854 1810.7 707.8660000000001 1813.21 709.4090000000001 1814.75C710.9530000000001 1816.28 713.4630000000001 1816.27 714.9970000000001 1814.72C716.528 1813.18 716.5200000000001 1810.67 714.974 1809.13ZM722.412 1816.84L722.412 1821.01C722.412 1821.39 722.522 1821.62 722.744 1821.56L722.9300000000001 1821.51C723.1880000000001 1821.44 723.3660000000001 1821.65 723.3660000000001 1821.86C723.3660000000001 1822.11 723.2370000000001 1822.25 722.969 1822.25C722.729 1822.25 722.745 1822.15 721.9770000000001 1822.15C721.2120000000001 1822.15 721.2280000000001 1822.25 720.9860000000001 1822.25C720.7170000000001 1822.25 720.589 1822.11 720.589 1821.86C720.589 1821.6499999999999 720.7660000000001 1821.4399999999998 721.024 1821.51L721.212 1821.56C721.433 1821.62 721.544 1821.3899999999999 721.544 1821.01L721.544 1816.84C721.544 1816.3799999999999 721.394 1816.35 720.966 1816.34L720.042 1816.34C719.613 1816.35 719.465 1816.3799999999999 719.465 1816.84L719.462 1817.9299999999998C719.462 1820.1 719.361 1822.2999999999997 717.391 1822.2999999999997C716.4749999999999 1822.2999999999997 715.901 1821.6499999999996 715.901 1820.9699999999998C715.901 1820.5399999999997 716.216 1820.2799999999997 716.558 1820.2799999999997C716.937 1820.2799999999997 717.1129999999999 1820.4999999999998 717.1129999999999 1820.8099999999997C717.1129999999999 1821.0699999999997 716.919 1821.2799999999997 716.8439999999999 1821.3299999999997C716.8439999999999 1821.4099999999996 716.983 1821.6299999999997 717.4359999999999 1821.6299999999997C718.2309999999999 1821.6299999999997 718.602 1820.7699999999998 718.602 1818.3999999999996L718.602 1816.8399999999997C718.602 1816.7799999999997 718.664 1816.2099999999996 718.184 1816.2999999999997L718.019 1816.3299999999997C717.792 1816.3799999999997 717.642 1816.1999999999996 717.642 1815.9999999999998C717.642 1815.7499999999998 717.798 1815.6199999999997 718.104 1815.6199999999997C718.331 1815.6199999999997 718.3100000000001 1815.6699999999996 718.7940000000001 1815.6899999999996L721.998 1815.6899999999996C722.238 1815.6899999999996 722.767 1815.6199999999997 722.9050000000001 1815.6199999999997C723.2110000000001 1815.6199999999997 723.3690000000001 1815.7499999999998 723.3690000000001 1815.9999999999998C723.3690000000001 1816.1999999999998 723.2150000000001 1816.3799999999999 722.9880000000002 1816.3299999999997L722.8260000000001 1816.2999999999997C722.4950000000001 1816.2399999999998 722.4120000000001 1816.4999999999998 722.4120000000001 1816.8399999999997ZM685.631 1821.06L685.631 1821.31C685.631 1822.09 685.22 1822.51 684.317 1822.51C683.8820000000001 1822.51 683.457 1822.32 683.318 1821.92C683.179 1821.51 682.93 1820.13 682.569 1819.71C682.245 1819.32 681.6899999999999 1819.15 680.987 1819.15C680.598 1819.15 680.5709999999999 1819.2800000000002 680.5709999999999 1819.47L680.5699999999999 1819.48L680.569 1821.18C680.567 1821.5600000000002 680.679 1821.8 680.899 1821.74L681.086 1821.68C681.344 1821.6100000000001 681.522 1821.8300000000002 681.522 1822.04C681.522 1822.29 681.392 1822.43 681.124 1822.43C680.884 1822.43 680.9 1822.38 680.139 1822.38C679.378 1822.38 679.394 1822.43 679.153 1822.43C678.885 1822.43 678.755 1822.29 678.755 1822.04C678.755 1821.83 678.933 1821.61 679.191 1821.68L679.379 1821.74C679.599 1821.8 679.71 1821.56 679.71 1821.18L679.71 1817.02C679.71 1816.68 679.6260000000001 1816.41 679.297 1816.48L679.134 1816.51C678.907 1816.55 678.754 1816.3799999999999 678.754 1816.18C678.754 1815.93 678.912 1815.8 679.217 1815.8C679.476 1815.8 679.414 1815.8799999999999 679.978 1815.8799999999999C680.5889999999999 1815.8799999999999 680.8109999999999 1815.8 681.0609999999999 1815.8C681.357 1815.8 681.5239999999999 1815.95 681.5239999999999 1816.2C681.5239999999999 1816.3600000000001 681.3739999999999 1816.54 681.2089999999998 1816.52L681.0049999999999 1816.49C680.6479999999999 1816.44 680.5699999999999 1816.64 680.5699999999999 1817.02L680.5699999999999 1818.33L680.5709999999999 1818.33C680.5709999999999 1818.57 680.6449999999999 1818.6599999999999 680.7649999999999 1818.6599999999999C681.3569999999999 1818.6599999999999 681.6159999999999 1818.5099999999998 681.7829999999999 1818.35C682.199 1817.9499999999998 682.1709999999999 1817.3899999999999 682.4949999999999 1816.6C682.7809999999998 1815.8999999999999 683.4379999999999 1815.76 683.7529999999999 1815.76C684.391 1815.76 684.891 1816.07 684.891 1816.74C684.891 1817.09 684.641 1817.32 684.3629999999999 1817.32C684.058 1817.32 683.818 1817.1499999999999 683.818 1816.8799999999999C683.818 1816.59 683.937 1816.56 684.03 1816.4899999999998C684.012 1816.4599999999998 683.929 1816.37 683.78 1816.37C683.4019999999999 1816.37 683.226 1816.62 683.105 1817.07L682.939 1817.71C682.819 1818.19 682.55 1818.48 682.1619999999999 1818.72L682.1709999999999 1818.78C682.698 1818.82 683.3359999999999 1819.21 683.568 1819.62C684.076 1820.53 683.808 1821.81 684.53 1821.81C684.968 1821.81 685.02 1821.3799999999999 685.02 1821.04C685.02 1820.84 685.103 1820.67 685.3249999999999 1820.67C685.5289999999999 1820.67 685.631 1820.8100000000002 685.631 1821.0600000000002ZM700.237 1807.09C698.8059999999999 1807.1 697.433 1807.37 696.163 1807.86L696.122 1807.87L696.0849999999999 1807.85C695.7399999999999 1807.6399999999999 695.3649999999999 1807.4699999999998 694.9699999999999 1807.35L694.7439999999999 1807.28L694.958 1807.18C696.607 1806.42 698.4399999999999 1806 700.37 1806C703.196 1806 705.817 1806.91 707.952 1808.46L708.031 1808.51L707.971 1808.58C707.783 1808.82 707.618 1809.07 707.477 1809.33L707.427 1809.4099999999999L707.344 1809.35C705.402 1807.9399999999998 703.024 1807.1 700.455 1807.09ZM732 1821.95C732 1822.14 731.887 1822.32 731.565 1822.31C731.379 1822.3 731.3430000000001 1822.2 730.4000000000001 1822.2C729.9110000000001 1822.21 729.801 1822.31 729.599 1822.31C729.34 1822.31 729.2090000000001 1822.1799999999998 729.2090000000001 1821.94C729.2090000000001 1821.72 729.359 1821.54 729.6250000000001 1821.56L729.9750000000001 1821.59C730.1920000000001 1821.61 730.2580000000002 1821.4499999999998 730.2500000000001 1821.32L729.8920000000002 1820.22C729.8250000000002 1820.02 729.7330000000002 1819.93 729.5960000000001 1819.93L727.6500000000001 1819.93C727.5110000000001 1819.93 727.4230000000001 1820.02 727.3530000000001 1820.22L726.9960000000001 1821.32C726.988 1821.45 727.0540000000001 1821.61 727.2710000000001 1821.59L727.619 1821.56C727.888 1821.54 728.0360000000001 1821.72 728.0360000000001 1821.94C728.0360000000001 1822.18 727.908 1822.31 727.647 1822.31C727.445 1822.31 727.335 1822.21 726.846 1822.2C725.902 1822.2 725.867 1822.3 725.683 1822.31C725.359 1822.32 725.245 1822.1399999999999 725.245 1821.95C725.245 1821.75 725.378 1821.56 725.571 1821.56L725.683 1821.56C725.998 1821.56 726.029 1821.55 726.226 1821.02L727.973 1816.34C728.011 1816 728.2139999999999 1815.6799999999998 728.622 1815.6799999999998C729.0319999999999 1815.6799999999998 729.235 1815.9999999999998 729.2719999999999 1816.34L731.02 1821.02C731.217 1821.55 731.245 1821.56 731.5649999999999 1821.56L731.6769999999999 1821.56C731.8709999999999 1821.56 731.9999999999999 1821.75 731.9999999999999 1821.95ZM701.858 1816.02C701.401 1816.42 700.7239999999999 1816 700.262 1815.23C699.886 1814.6 699.5669999999999 1813.77 700.2779999999999 1813.41C700.9089999999999 1813.0900000000001 701.6139999999999 1813.5500000000002 702.3759999999999 1813.6200000000001C702.4989999999999 1813.44 702.6809999999998 1813.2900000000002 702.9049999999999 1813.22C703.1279999999998 1813.15 703.3589999999998 1813.16 703.5649999999998 1813.24C704.1479999999998 1812.74 704.4559999999998 1811.96 705.1549999999999 1811.85C705.9409999999998 1811.73 706.1639999999999 1812.59 706.2219999999999 1813.32C706.2949999999998 1814.22 705.9849999999999 1814.95 705.3809999999999 1814.8899999999999C704.8629999999998 1814.84 704.5679999999999 1814.7399999999998 704.0989999999998 1814.7199999999998C703.9769999999999 1814.9299999999998 703.7769999999998 1815.1 703.5309999999998 1815.1799999999998C703.2829999999998 1815.2599999999998 703.0239999999999 1815.2299999999998 702.8019999999998 1815.1399999999999C702.4329999999998 1815.4199999999998 702.2479999999998 1815.6799999999998 701.8579999999998 1816.02ZM711.172 1814.26C710.4870000000001 1813.95 710.042 1813.32 709.933 1812.62L710.3389999999999 1812.4699999999998C710.4019999999999 1813.0599999999997 710.7689999999999 1813.61 711.347 1813.8799999999999C711.929 1814.1399999999999 712.581 1814.06 713.071 1813.7199999999998L713.2230000000001 1814.1299999999999C712.624 1814.4999999999998 711.8570000000001 1814.57 711.172 1814.26ZM706.024 1822.96C705.305 1823.19 704.553 1823.03 704.004 1822.5900000000001L704.202 1822.2C704.648 1822.6000000000001 705.288 1822.76 705.893 1822.56C706.501 1822.37 706.928 1821.87 707.063 1821.28L707.4499999999999 1821.48C707.257 1822.16 706.741 1822.73 706.0239999999999 1822.96ZM711.778 1811.36C711.563 1811.83 711.085 1812.07 710.714 1811.8999999999999C710.341 1811.7299999999998 710.2130000000001 1811.2099999999998 710.426 1810.7399999999998C710.6410000000001 1810.2699999999998 711.1170000000001 1810.0299999999997 711.49 1810.1999999999998C711.861 1810.37 711.99 1810.8899999999999 711.778 1811.36ZM714.321 1812.52C714.107 1812.99 713.63 1813.23 713.2570000000001 1813.06C712.8860000000001 1812.8899999999999 712.7570000000001 1812.37 712.9710000000001 1811.8999999999999C713.1850000000002 1811.4399999999998 713.6630000000001 1811.1899999999998 714.0350000000001 1811.36C714.407 1811.53 714.5350000000001 1812.05 714.321 1812.52ZM707.182 1819.56C707.338 1820.05 707.149 1820.55 706.759 1820.6699999999998C706.37 1820.8 705.924 1820.4999999999998 705.766 1820.0099999999998C705.611 1819.5199999999998 705.8 1819.0199999999998 706.189 1818.8899999999999C706.579 1818.77 707.024 1819.07 707.182 1819.56ZM704.516 1820.41C704.674 1820.9 704.483 1821.4 704.093 1821.53C703.706 1821.6499999999999 703.259 1821.35 703.102 1820.86C702.946 1820.37 703.135 1819.87 703.525 1819.75C703.914 1819.62 704.36 1819.92 704.516 1820.41ZM675.955 1817.07L675.955 1821.24C675.955 1821.61 676.067 1821.85 676.287 1821.79L676.475 1821.74C676.732 1821.66 676.91 1821.88 676.91 1822.09C676.91 1822.34 676.781 1822.48 676.5129999999999 1822.48C676.2719999999999 1822.48 676.2889999999999 1822.3700000000001 675.6589999999999 1822.3700000000001L668.2519999999998 1822.3700000000001C667.6229999999998 1822.3700000000001 667.6399999999999 1822.48 667.3989999999999 1822.48C667.1309999999999 1822.48 667.0009999999999 1822.34 667.0009999999999 1822.09C667.0009999999999 1821.8799999999999 667.1789999999999 1821.6599999999999 667.4369999999999 1821.74L667.6249999999999 1821.79C667.8449999999999 1821.85 667.9559999999999 1821.61 667.9559999999999 1821.24L667.9559999999999 1817.07C667.9559999999999 1816.73 667.8729999999999 1816.47 667.5439999999999 1816.53L667.3799999999999 1816.56C667.1529999999999 1816.61 666.9999999999999 1816.4299999999998 666.9999999999999 1816.23C666.9999999999999 1815.98 667.1569999999999 1815.85 667.4629999999999 1815.85C667.7219999999999 1815.85 667.6599999999999 1815.9299999999998 668.2239999999998 1815.9299999999998C668.8349999999998 1815.9299999999998 669.0579999999998 1815.85 669.3069999999998 1815.85C669.6029999999998 1815.85 669.7699999999998 1816 669.7699999999998 1816.25C669.7699999999998 1816.41 669.6199999999998 1816.59 669.4549999999997 1816.57L669.2519999999997 1816.54C668.8939999999998 1816.5 668.8169999999998 1816.69 668.8169999999998 1817.07L668.8169999999998 1821.24C668.8169999999998 1821.6200000000001 668.8999999999997 1821.76 669.2599999999998 1821.76C669.6209999999998 1821.76 669.5569999999998 1821.7 670.1669999999998 1821.7C670.7589999999998 1821.7 670.9439999999998 1821.76 671.0829999999999 1821.76C671.4439999999998 1821.76 671.5269999999998 1821.62 671.5269999999998 1821.24L671.5269999999998 1817.07C671.5269999999998 1816.6899999999998 671.5239999999998 1816.51 671.1649999999998 1816.54L670.8899999999999 1816.57C670.7249999999999 1816.59 670.5759999999999 1816.4099999999999 670.5759999999999 1816.25C670.5759999999999 1816 670.7429999999999 1815.85 671.0389999999999 1815.85C671.2879999999999 1815.85 671.3419999999999 1815.9199999999998 671.9559999999999 1815.9199999999998C672.5699999999999 1815.9199999999998 672.6239999999999 1815.85 672.8729999999999 1815.85C673.169 1815.85 673.3349999999999 1816 673.3349999999999 1816.25C673.3349999999999 1816.41 673.1859999999999 1816.59 673.021 1816.57L672.747 1816.54C672.3879999999999 1816.51 672.385 1816.69 672.385 1817.07L672.385 1821.24C672.385 1821.6200000000001 672.468 1821.76 672.829 1821.76C672.968 1821.76 673.1519999999999 1821.7 673.745 1821.7C674.355 1821.7 674.29 1821.76 674.651 1821.76C675.012 1821.76 675.0949999999999 1821.62 675.0949999999999 1821.24L675.0949999999999 1817.07C675.0949999999999 1816.6899999999998 675.0179999999999 1816.5 674.66 1816.54L674.457 1816.57C674.2909999999999 1816.59 674.1419999999999 1816.4099999999999 674.1419999999999 1816.25C674.1419999999999 1816 674.308 1815.85 674.6039999999999 1815.85C674.8539999999999 1815.85 675.0769999999999 1815.9299999999998 675.6869999999999 1815.9299999999998C676.252 1815.9299999999998 676.1889999999999 1815.85 676.4489999999998 1815.85C676.7539999999998 1815.85 676.9109999999998 1815.98 676.9109999999998 1816.23C676.9109999999998 1816.43 676.7589999999998 1816.6100000000001 676.5319999999998 1816.56L676.3679999999998 1816.53C676.0389999999999 1816.47 675.9549999999998 1816.73 675.9549999999998 1817.07Z " fill="#ffffff" transform="matrix(1,0,0,1,-667,-1806)"></path></svg>