<svg id="SvgjsSvg1047" xmlns="http://www.w3.org/2000/svg" version="1.1" xmlns:xlink="http://www.w3.org/1999/xlink" xmlns:svgjs="http://svgjs.com/svgjs" width="25" height="20"><defs id="SvgjsDefs1048"></defs><path id="SvgjsPath1049" d="M1201.31 3196.37C1200.32 3196.95 1199.22 3197.37 1198.05 3197.5899999999997C1197.12 3196.6099999999997 1195.78 3195.9999999999995 1194.31 3195.9999999999995C1191.48 3195.9999999999995 1189.1799999999998 3198.2599999999998 1189.1799999999998 3201.0499999999997C1189.1799999999998 3201.4399999999996 1189.2299999999998 3201.83 1189.31 3202.2C1185.05 3201.99 1181.27 3199.98 1178.74 3196.9199999999996C1178.3 3197.6699999999996 1178.05 3198.5299999999997 1178.05 3199.4599999999996C1178.05 3201.2099999999996 1178.95 3202.7599999999998 1180.33 3203.6599999999994C1179.49 3203.6399999999994 1178.6999999999998 3203.4099999999994 1178.01 3203.0299999999993L1178.01 3203.0899999999992C1178.01 3205.539999999999 1179.77 3207.579999999999 1182.12 3208.0499999999993C1181.6899999999998 3208.1599999999994 1181.2399999999998 3208.2199999999993 1180.77 3208.2199999999993C1180.44 3208.2199999999993 1180.12 3208.189999999999 1179.8 3208.129999999999C1180.46 3210.1399999999994 1182.35 3211.599999999999 1184.59 3211.6399999999994C1182.84 3212.9899999999993 1180.6299999999999 3213.7999999999993 1178.22 3213.7999999999993C1177.81 3213.7999999999993 1177.4 3213.7799999999993 1177 3213.729999999999C1179.27 3215.159999999999 1181.96 3215.999999999999 1184.86 3215.999999999999C1194.3 3215.999999999999 1199.4499999999998 3208.2999999999993 1199.4499999999998 3201.629999999999L1199.4399999999998 3200.979999999999C1200.4399999999998 3200.269999999999 1201.3099999999997 3199.379999999999 1201.9999999999998 3198.369999999999C1201.0799999999997 3198.769999999999 1200.0899999999997 3199.039999999999 1199.0599999999997 3199.159999999999C1200.1099999999997 3198.539999999999 1200.9299999999996 3197.539999999999 1201.3099999999997 3196.369999999999Z " fill="#55acee" transform="matrix(1,0,0,1,-1177,-3196)"></path></svg>