<svg id="SvgjsSvg1014" xmlns="http://www.w3.org/2000/svg" version="1.1" xmlns:xlink="http://www.w3.org/1999/xlink" xmlns:svgjs="http://svgjs.com/svgjs" width="39" height="38"><defs id="SvgjsDefs1015"></defs><path id="SvgjsPath1016" d="M1185.3 51.0031C1174.77 51.0031 1166.21 59.5245 1166.21 69.9984C1166.21 80.4722 1174.77 88.993 1185.3 88.993C1195.83 88.993 1204.3899999999999 80.4722 1204.3899999999999 69.9984C1204.3899999999999 59.5245 1195.83 51.0031 1185.3 51.0031ZM1193.82 65.6508C1193.83 65.8392 1193.83 66.02900000000001 1193.83 66.2188C1193.83 71.996 1189.4099999999999 78.6572 1181.33 78.6572C1178.84 78.6572 1176.53 77.9342 1174.59 76.69330000000001C1174.9299999999998 76.7335 1175.28 76.75430000000001 1175.6399999999999 76.75430000000001C1177.6999999999998 76.75430000000001 1179.59 76.05470000000001 1181.1 74.88270000000001C1179.1699999999998 74.84770000000002 1177.55 73.58320000000002 1176.99 71.84590000000001C1177.26 71.89820000000002 1177.53 71.92490000000001 1177.82 71.92490000000001C1178.22 71.92490000000001 1178.61 71.8717 1178.98 71.77180000000001C1176.97 71.37010000000001 1175.45 69.60390000000001 1175.45 67.48550000000002C1175.45 67.46740000000001 1175.45 67.44810000000001 1175.45 67.43050000000001C1176.04 67.75730000000001 1176.72 67.95490000000001 1177.44 67.9766C1176.26 67.19420000000001 1175.49 65.85510000000001 1175.49 64.33890000000001C1175.49 63.53680000000001 1175.7 62.78560000000001 1176.08 62.14000000000001C1178.25 64.7856 1181.49 66.5254 1185.1399999999999 66.709C1185.06 66.3886 1185.03 66.05550000000001 1185.03 65.7124C1185.03 63.298 1186.99 61.3406 1189.42 61.3406C1190.68 61.3406 1191.8300000000002 61.871300000000005 1192.63 62.7203C1193.63 62.524300000000004 1194.5700000000002 62.1617 1195.42 61.6593C1195.0900000000001 62.6806 1194.39 63.5368 1193.48 64.0786C1194.3700000000001 63.972899999999996 1195.22 63.738699999999994 1196.01 63.39059999999999C1195.42 64.2662 1194.68 65.03649999999999 1193.82 65.65079999999999Z " fill="#ffffff" transform="matrix(1,0,0,1,-1166,-51)"></path></svg>