<svg id="SvgjsSvg1041" xmlns="http://www.w3.org/2000/svg" version="1.1" xmlns:xlink="http://www.w3.org/1999/xlink" xmlns:svgjs="http://svgjs.com/svgjs" width="25" height="16"><defs id="SvgjsDefs1042"></defs><path id="SvgjsPath1043" d="M1104.06 3213.92C1103.9299999999998 3213.94 1103.8 3213.96 1103.6699999999998 3213.96C1102.4099999999999 3213.96 1101.1499999999999 3213.96 1099.8799999999999 3213.9700000000003C1099.7099999999998 3213.9700000000003 1099.56 3213.9 1099.4299999999998 3213.78C1099.1699999999998 3213.55 1098.8999999999999 3213.3300000000004 1098.6499999999999 3213.07C1098.0199999999998 3212.4 1097.4099999999999 3211.7000000000003 1096.78 3211.03C1096.58 3210.8100000000004 1096.37 3210.6200000000003 1096.17 3210.42C1096.0600000000002 3210.31 1095.93 3210.29 1095.79 3210.29C1095.61 3210.29 1095.45 3210.38 1095.3799999999999 3210.57C1095.32 3210.73 1095.26 3210.92 1095.2399999999998 3211.09C1095.2099999999998 3211.4100000000003 1095.2099999999998 3211.7400000000002 1095.1999999999998 3212.06C1095.1999999999998 3212.42 1095.1899999999998 3212.7799999999997 1095.09 3213.13C1095.05 3213.29 1094.99 3213.44 1094.9199999999998 3213.58C1094.7899999999997 3213.8199999999997 1094.58 3213.96 1094.32 3213.96C1093.22 3213.9900000000002 1092.11 3214.01 1091.01 3213.93C1090.81 3213.91 1090.62 3213.8399999999997 1090.44 3213.75C1089.41 3213.2 1088.51 3212.49 1087.73 3211.59C1086.77 3210.5 1085.91 3209.33 1085.04 3208.1600000000003C1083.8799999999999 3206.5800000000004 1082.87 3204.8900000000003 1081.96 3203.1400000000003C1081.63 3202.4900000000002 1081.31 3201.84 1081.08 3201.1500000000005C1080.96 3200.8100000000004 1080.96 3200.4700000000007 1081.05 3200.1300000000006C1081.07 3200.0300000000007 1081.12 3199.9300000000007 1081.1699999999998 3199.8400000000006C1081.2399999999998 3199.7100000000005 1081.36 3199.6300000000006 1081.5099999999998 3199.6300000000006C1081.5599999999997 3199.6300000000006 1081.6099999999997 3199.6300000000006 1081.6699999999998 3199.6300000000006C1082.81 3199.6300000000006 1083.9499999999998 3199.6300000000006 1085.1 3199.6200000000003C1085.32 3199.6200000000003 1085.5 3199.7000000000003 1085.6499999999999 3199.8700000000003C1085.9299999999998 3200.1700000000005 1086.1499999999999 3200.5200000000004 1086.35 3200.8900000000003C1086.56 3201.2900000000004 1086.78 3201.6900000000005 1086.9699999999998 3202.11C1087.3799999999999 3203.02 1087.8899999999999 3203.8700000000003 1088.4299999999998 3204.7000000000003C1088.6999999999998 3205.11 1088.9799999999998 3205.4900000000002 1089.2599999999998 3205.8900000000003C1089.3799999999997 3206.07 1089.5599999999997 3206.1400000000003 1089.7599999999998 3206.1500000000005C1089.9599999999998 3206.1600000000008 1090.0399999999997 3206.0700000000006 1090.0499999999997 3205.8600000000006C1090.0499999999997 3205.8100000000004 1090.0499999999997 3205.7600000000007 1090.0499999999997 3205.7100000000005C1090.0499999999997 3204.3200000000006 1090.0499999999997 3202.9300000000003 1090.0499999999997 3201.5500000000006C1090.0499999999997 3201.4400000000005 1090.0499999999997 3201.330000000001 1090.0399999999997 3201.2200000000007C1090.0099999999998 3200.9700000000007 1089.8899999999996 3200.830000000001 1089.6599999999996 3200.7800000000007C1089.5599999999997 3200.7600000000007 1089.4599999999996 3200.7500000000005 1089.3499999999997 3200.7400000000007C1089.0299999999997 3200.6900000000005 1088.8999999999996 3200.540000000001 1088.8599999999997 3200.2000000000007C1088.8099999999997 3199.6700000000005 1089.0499999999997 3199.2600000000007 1089.4999999999998 3199.080000000001C1089.6999999999998 3199.000000000001 1089.8999999999999 3198.980000000001 1090.1099999999997 3198.980000000001C1091.1299999999997 3198.990000000001 1092.1499999999996 3198.980000000001 1093.1699999999996 3198.990000000001C1093.3799999999997 3198.990000000001 1093.5899999999997 3198.970000000001 1093.7899999999995 3198.990000000001C1094.0099999999995 3199.0200000000013 1094.2199999999996 3199.050000000001 1094.4299999999996 3199.110000000001C1094.8799999999997 3199.250000000001 1095.1399999999996 3199.580000000001 1095.1899999999996 3200.080000000001C1095.1999999999996 3200.2000000000007 1095.1999999999996 3200.3200000000006 1095.1999999999996 3200.440000000001C1095.2099999999996 3201.280000000001 1095.2099999999996 3202.120000000001 1095.2099999999996 3202.970000000001C1095.2099999999996 3203.860000000001 1095.2099999999996 3204.7500000000014 1095.2099999999996 3205.6400000000012C1095.2099999999996 3205.7300000000014 1095.2099999999996 3205.820000000001 1095.2399999999996 3205.910000000001C1095.3099999999995 3206.180000000001 1095.5799999999995 3206.2700000000013 1095.8099999999995 3206.1000000000013C1096.4899999999996 3205.590000000001 1096.9399999999996 3204.8900000000012 1097.2799999999995 3204.1100000000015C1097.5999999999995 3203.3900000000017 1097.8699999999994 3202.6500000000015 1098.1699999999996 3201.9200000000014C1098.4099999999996 3201.3400000000015 1098.6599999999996 3200.7700000000013 1098.8999999999996 3200.1900000000014C1098.9599999999996 3200.0500000000015 1099.0499999999997 3199.9200000000014 1099.1399999999996 3199.7900000000013C1099.2099999999996 3199.6700000000014 1099.3099999999997 3199.6200000000013 1099.4499999999996 3199.6200000000013C1100.9299999999996 3199.6300000000015 1102.4099999999996 3199.6300000000015 1103.8899999999996 3199.6300000000015C1104.2599999999995 3199.6300000000015 1104.5399999999997 3199.7800000000016 1104.7699999999998 3200.0800000000013C1104.8499999999997 3200.180000000001 1104.8799999999997 3200.3100000000013 1104.8999999999999 3200.4400000000014C1104.9899999999998 3201.0700000000015 1104.79 3201.6200000000013 1104.5099999999998 3202.1400000000012C1104.2499999999998 3202.6400000000012 1103.9299999999998 3203.1000000000013 1103.5899999999997 3203.530000000001C1102.8799999999997 3204.430000000001 1102.1899999999996 3205.340000000001 1101.5799999999997 3206.3300000000013C1101.4299999999996 3206.5800000000013 1101.2899999999997 3206.8500000000013 1101.1499999999996 3207.1100000000015C1101.0399999999997 3207.3000000000015 1101.0599999999997 3207.4900000000016 1101.1899999999996 3207.6600000000017C1101.4599999999996 3208.000000000002 1101.7199999999996 3208.3600000000015 1101.9999999999995 3208.690000000002C1102.6699999999996 3209.470000000002 1103.3499999999995 3210.240000000002 1104.0199999999995 3211.020000000002C1104.2399999999996 3211.280000000002 1104.4299999999996 3211.550000000002 1104.6299999999994 3211.8100000000018C1104.6999999999994 3211.900000000002 1104.7499999999993 3212.000000000002 1104.8099999999995 3212.090000000002C1105.3099999999995 3212.790000000002 1104.6899999999996 3213.8300000000017 1104.0599999999995 3213.920000000002Z " fill="#4c75a3" transform="matrix(1,0,0,1,-1080,-3198)"></path></svg>