<svg id="SvgjsSvg1017" xmlns="http://www.w3.org/2000/svg" version="1.1" xmlns:xlink="http://www.w3.org/1999/xlink" xmlns:svgjs="http://svgjs.com/svgjs" width="39" height="38"><defs id="SvgjsDefs1018"></defs><path id="SvgjsPath1019" d="M1100.1 51.0001C1089.55 51.0001 1081 59.5064 1081 69.9996C1081 80.4925 1089.55 88.9984 1100.1 88.9984C1110.6399999999999 88.9984 1119.1899999999998 80.4925 1119.1899999999998 69.9996C1119.1899999999998 59.5064 1110.6399999999999 51.0001 1100.1 51.0001ZM1109.78 72.0546C1110.67 72.919 1111.62 73.7331 1112.42 74.68759999999999C1112.77 75.10959999999999 1113.1000000000001 75.5465 1113.3600000000001 76.03719999999998C1113.72 76.73769999999999 1113.39 77.50559999999999 1112.7600000000002 77.54679999999999L1108.8500000000001 77.54639999999999C1107.8400000000001 77.6291 1107.0400000000002 77.22359999999999 1106.3600000000001 76.5362C1105.8200000000002 75.98899999999999 1105.3100000000002 75.4037 1104.7900000000002 74.83709999999999C1104.5800000000002 74.6051 1104.3600000000001 74.3861 1104.0900000000001 74.214C1103.5600000000002 73.8685 1103.0900000000001 73.97409999999999 1102.7900000000002 74.5287C1102.4800000000002 75.0922 1102.4 75.7173 1102.3700000000001 76.345C1102.3300000000002 77.2633 1102.0500000000002 77.5026 1101.13 77.5464C1099.15 77.63820000000001 1097.2700000000002 77.3395 1095.5300000000002 76.3476C1093.9900000000002 75.4726 1092.8000000000002 74.2375 1091.7600000000002 72.8392C1089.7400000000002 70.1135 1088.1900000000003 67.12150000000001 1086.8000000000002 64.0442C1086.4900000000002 63.3506 1086.7200000000003 62.979800000000004 1087.4900000000002 62.9656C1088.7600000000002 62.9407 1090.0400000000002 62.944300000000005 1091.3200000000002 62.964C1091.8400000000001 62.9722 1092.18 63.268299999999996 1092.38 63.7562C1093.0700000000002 65.4451 1093.92 67.0522 1094.98 68.5427C1095.26 68.9396 1095.55 69.3351 1095.96 69.61529999999999C1096.41 69.92519999999999 1096.76 69.8226 1096.97 69.31899999999999C1097.1100000000001 68.99919999999999 1097.17 68.65679999999999 1097.2 68.3145C1097.3 67.1398 1097.31 65.9661 1097.13 64.7965C1097.0300000000002 64.0641 1096.6100000000001 63.591699999999996 1095.88 63.45329999999999C1095.5 63.383199999999995 1095.5600000000002 63.24539999999999 1095.74 63.03329999999999C1096.06 62.665899999999986 1096.35 62.43889999999999 1096.94 62.43889999999999L1101.3600000000001 62.43849999999999C1102.0600000000002 62.574299999999994 1102.21 62.88559999999999 1102.3100000000002 63.58299999999999L1102.3100000000002 68.47059999999999C1102.3100000000002 68.7405 1102.4500000000003 69.54159999999999 1102.9400000000003 69.71879999999999C1103.3300000000004 69.84709999999998 1103.5900000000004 69.53499999999998 1103.8200000000004 69.28909999999999C1104.8800000000003 68.17009999999999 1105.6300000000003 66.84899999999999 1106.3100000000004 65.4819C1106.6100000000004 64.8788 1106.8700000000003 64.2552 1107.1200000000003 63.6303C1107.3000000000004 63.1675 1107.5900000000004 62.9403 1108.1200000000003 62.9477L1112.3700000000003 62.9531C1112.5000000000005 62.9531 1112.6300000000003 62.9541 1112.7500000000005 62.9756C1113.4700000000005 63.0978 1113.6600000000005 63.4049 1113.4400000000005 64.1013C1113.0900000000006 65.1952 1112.4100000000005 66.10589999999999 1111.7500000000005 67.0197C1111.0400000000004 67.9977 1110.2800000000004 68.9412 1109.5800000000004 69.9236C1108.9300000000003 70.8227 1108.9800000000005 71.27449999999999 1109.7800000000004 72.0546Z " fill="#ffffff" transform="matrix(1,0,0,1,-1081,-51)"></path></svg>