<svg id="SvgjsSvg1053" xmlns="http://www.w3.org/2000/svg" version="1.1" xmlns:xlink="http://www.w3.org/1999/xlink" xmlns:svgjs="http://svgjs.com/svgjs" width="30" height="28"><defs id="SvgjsDefs1054"></defs><path id="SvgjsPath1055" d="M867.143 3080.99L844.855 3080.99C843.273 3080.99 841.989 3082.18 841.989 3083.6499999999996L841.989 3104.3499999999995C841.989 3105.8199999999993 843.273 3107.0099999999993 844.855 3107.0099999999993L867.143 3107.0099999999993C868.726 3107.0099999999993 870.01 3105.8199999999993 870.01 3104.3499999999995L870.01 3083.6499999999996C870.01 3082.18 868.727 3080.99 867.143 3080.99ZM866.257 3101.8C866.0809999999999 3103.29 864.655 3104.51 863.0569999999999 3104.61C858.3469999999999 3104.8 853.6519999999999 3104.8 848.944 3104.61C847.3439999999999 3104.51 845.919 3103.29 845.742 3101.8C845.568 3099.4300000000003 845.568 3097.11 845.742 3094.75C845.918 3093.26 847.3439999999999 3092.04 848.944 3091.94C853.6519999999999 3091.75 858.347 3091.75 863.057 3091.94C864.657 3092.04 866.081 3093.26 866.2570000000001 3094.75C866.4340000000001 3097.11 866.4340000000001 3099.43 866.2570000000001 3101.8ZM847.577 3095.21L848.911 3095.21L848.911 3102.17L850.3069999999999 3102.17L850.3069999999999 3095.21L851.6439999999999 3095.21L851.6439999999999 3093.89L847.5769999999999 3093.89ZM850.2 3083.25L851.3090000000001 3086.56C851.5020000000001 3085.69 851.8760000000001 3084.5 852.1720000000001 3083.25L853.1780000000001 3083.25L851.8830000000002 3087.98L851.8740000000001 3088.01L851.8740000000001 3091.38L850.6940000000002 3091.38L850.6940000000002 3088.01L850.6850000000002 3087.98L849.1930000000002 3083.25ZM860.032 3096.2C859.9580000000001 3096.0699999999997 859.854 3095.97 859.715 3095.8999999999996C859.571 3095.8199999999997 859.395 3095.7799999999997 859.192 3095.7799999999997C859.023 3095.7799999999997 858.869 3095.8199999999997 858.723 3095.91C858.573 3096 858.433 3096.1299999999997 858.3059999999999 3096.31L857.9019999999999 3096.89L857.9019999999999 3093.89L856.5799999999999 3093.89L856.5799999999999 3102.17L857.828 3102.17L857.905 3101.8L858.0129999999999 3101.29L858.3079999999999 3101.73C858.4369999999999 3101.93 858.5809999999999 3102.07 858.7319999999999 3102.17C858.8769999999998 3102.26 859.0259999999998 3102.3 859.1889999999999 3102.3C859.4209999999998 3102.3 859.6159999999999 3102.23 859.7859999999998 3102.0800000000004C859.9629999999999 3101.9200000000005 860.0729999999999 3101.7400000000002 860.1209999999999 3101.5200000000004C860.1739999999999 3101.2800000000007 860.1999999999998 3100.9000000000005 860.1999999999998 3100.9200000000005L860.1999999999998 3097.6400000000003C860.1999999999998 3097.6500000000005 860.2519999999998 3097.3100000000004 860.1739999999999 3096.63C860.1609999999998 3096.4900000000002 860.1119999999999 3096.35 860.0319999999998 3096.2000000000003ZM854.183 3099.79C854.183 3100.54 854.159 3100.72 854.141 3100.8C854.092 3101 853.9259999999999 3101.11 853.6909999999999 3101.11C853.4669999999999 3101.11 853.305 3101 853.252 3100.82C853.2289999999999 3100.7400000000002 853.204 3100.55 853.204 3099.84L853.204 3095.88L851.882 3095.88L851.882 3100.19C851.882 3100.76 851.891 3101.14 851.909 3101.33C851.928 3101.5 851.975 3101.67 852.051 3101.83C852.1170000000001 3101.97 852.2170000000001 3102.08 852.3570000000001 3102.17C852.493 3102.26 852.6740000000001 3102.3 852.893 3102.3C853.08 3102.3 853.241 3102.25 853.383 3102.1600000000003C853.5310000000001 3102.07 853.659 3101.9200000000005 853.763 3101.7300000000005L854.183 3101.8200000000006L854.163 3102.1800000000007L855.504 3102.1800000000007L855.504 3095.8800000000006L854.184 3095.8800000000006ZM859.494 3085.38L859.494 3089.38C859.494 3090.15 859.5210000000001 3090.12 859.548 3090.2200000000003C859.577 3090.32 859.676 3090.5600000000004 859.996 3090.5600000000004C860.335 3090.5600000000004 860.4309999999999 3090.3100000000004 860.456 3090.2000000000003C860.477 3090.11 860.503 3090.13 860.503 3089.3300000000004L860.503 3085.3800000000006L861.865 3085.3800000000006L861.865 3091.3800000000006L860.485 3091.3800000000006L860.501 3091.0800000000004L860.0799999999999 3090.9200000000005C859.9749999999999 3091.1200000000003 859.8509999999999 3091.2600000000007 859.699 3091.3600000000006C859.5459999999999 3091.4600000000005 859.3739999999999 3091.5100000000007 859.1709999999999 3091.5100000000007C858.935 3091.5100000000007 858.7449999999999 3091.4600000000005 858.5989999999999 3091.370000000001C858.4569999999999 3091.2800000000007 858.3589999999999 3091.170000000001 858.294 3091.020000000001C858.222 3090.870000000001 858.178 3090.7000000000007 858.16 3090.530000000001C858.14 3090.3300000000013 858.13 3089.930000000001 858.13 3089.340000000001L858.13 3085.380000000001ZM853.389 3087.88C853.389 3087.25 853.446 3086.77 853.5550000000001 3086.42C853.6560000000001 3086.11 853.8370000000001 3085.86 854.1070000000001 3085.66C854.383 3085.47 854.7450000000001 3085.37 855.1880000000001 3085.37C855.565 3085.37 855.8880000000001 3085.44 856.1520000000002 3085.56C856.4080000000001 3085.69 856.6060000000001 3085.86 856.7400000000001 3086.0499999999997C856.8790000000001 3086.2499999999995 856.9740000000002 3086.4599999999996 857.0250000000001 3086.6699999999996C857.0780000000001 3086.8899999999994 857.104 3087.24 857.104 3087.72L857.104 3088.77C857.104 3089.39 857.0780000000001 3089.85 857.0300000000001 3090.13C856.9830000000001 3090.38 856.8820000000001 3090.62 856.7280000000001 3090.85C856.576 3091.0699999999997 856.3850000000001 3091.23 856.143 3091.3399999999997C855.892 3091.45 855.5980000000001 3091.5099999999998 855.2660000000001 3091.5099999999998C854.8900000000001 3091.5099999999998 854.57 3091.4599999999996 854.3140000000001 3091.3599999999997C854.076 3091.2699999999995 853.893 3091.14 853.7660000000001 3090.9599999999996C853.6370000000001 3090.7799999999997 853.542 3090.5599999999995 853.484 3090.2999999999997C853.422 3090.0199999999995 853.3910000000001 3089.5899999999997 853.3910000000001 3089.0099999999998ZM855.246 3090.79C855.444 3090.79 855.5989999999999 3090.68 855.669 3090.49C855.6999999999999 3090.3999999999996 855.74 3090.2299999999996 855.74 3089.7799999999997L855.74 3087.18C855.74 3086.66 855.707 3086.49 855.673 3086.39C855.604 3086.19 855.45 3086.08 855.251 3086.08C855.055 3086.08 854.901 3086.19 854.828 3086.38C854.7909999999999 3086.48 854.754 3086.65 854.754 3087.1800000000003L854.754 3089.7100000000005C854.754 3090.2000000000003 854.792 3090.3700000000003 854.827 3090.4700000000007C854.898 3090.6700000000005 855.05 3090.790000000001 855.246 3090.790000000001ZM858.822 3100.71C858.76 3100.92 858.603 3101.03 858.394 3101.03C858.19 3101.03 858.033 3100.92 857.968 3100.7200000000003C857.938 3100.6400000000003 857.9029999999999 3100.46 857.9029999999999 3099.92L857.9029999999999 3098.26C857.9029999999999 3097.7000000000003 857.935 3097.53 857.9619999999999 3097.4500000000003C858.0229999999999 3097.26 858.1809999999999 3097.15 858.3829999999999 3097.15C858.5909999999999 3097.15 858.7499999999999 3097.27 858.8159999999999 3097.4700000000003C858.8449999999999 3097.5600000000004 858.8839999999999 3097.7300000000005 858.8839999999999 3098.26L858.8839999999999 3099.8500000000004L858.8809999999999 3099.8500000000004C858.8809999999999 3100.4400000000005 858.8479999999998 3100.6200000000003 858.8219999999999 3100.7100000000005ZM864.777 3099.21L864.777 3098.53C864.777 3097.9100000000003 864.715 3097.2000000000003 864.5930000000001 3096.8700000000003C864.479 3096.55 864.282 3096.3 863.993 3096.11C863.714 3095.9300000000003 863.346 3095.83 862.902 3095.83C862.543 3095.83 862.221 3095.91 861.947 3096.0699999999997C861.674 3096.22 861.484 3096.4399999999996 861.363 3096.74C861.2360000000001 3097.0499999999997 861.1700000000001 3097.49 861.1700000000001 3098.27L861.1700000000001 3100.2C861.1700000000001 3100.45 861.2020000000001 3100.81 861.2570000000001 3101.0499999999997C861.312 3101.2899999999995 861.413 3101.4999999999995 861.5550000000001 3101.7C861.6890000000001 3101.8799999999997 861.8850000000001 3102.02 862.1320000000001 3102.1299999999997C862.3860000000001 3102.24 862.686 3102.2999999999997 863.023 3102.2999999999997C863.3670000000001 3102.2999999999997 863.655 3102.24 863.874 3102.14C864.094 3102.0299999999997 864.275 3101.8599999999997 864.421 3101.64C864.572 3101.42 864.6700000000001 3101.2 864.7090000000001 3101.0099999999998C864.753 3100.7999999999997 864.7740000000001 3100.4999999999995 864.7740000000001 3100.1L864.7740000000001 3099.81L863.5450000000001 3099.81L863.5450000000001 3100.48C863.5450000000001 3100.84 863.5190000000001 3101.08 863.465 3101.22C863.389 3101.41 863.214 3101.52 862.986 3101.52C862.787 3101.52 862.633 3101.43 862.564 3101.2599999999998C862.529 3101.1899999999996 862.492 3101.0499999999997 862.492 3100.6099999999997L862.492 3099.2099999999996ZM862.495 3098.33L862.495 3097.62C862.495 3097.1 862.523 3097.18 862.549 3097.1099999999997C862.608 3096.9399999999996 862.766 3096.8399999999997 862.986 3096.8399999999997C863.184 3096.8399999999997 863.336 3096.95 863.3969999999999 3097.1299999999997C863.4209999999999 3097.2 863.453 3097.1299999999997 863.453 3097.6199999999994L863.453 3098.5299999999993L862.496 3098.5299999999993Z " fill="#ffffff" transform="matrix(1,0,0,1,-841,-3080)"></path></svg>