<svg id="SvgjsSvg1029" xmlns="http://www.w3.org/2000/svg" version="1.1" xmlns:xlink="http://www.w3.org/1999/xlink" xmlns:svgjs="http://svgjs.com/svgjs" width="39" height="38"><defs id="SvgjsDefs1030"></defs><path id="SvgjsPath1031" d="M1224.42 74.1636C1227.29 72.68520000000001 1230.13 71.2208 1233 69.7414C1230.12 68.2492 1227.28 66.7756 1224.42 65.2918C1224.42 68.25919999999999 1224.42 71.1963 1224.42 74.1636ZM1227.9 51.0001C1217.3600000000001 51.0001 1208.8100000000002 59.5064 1208.8100000000002 69.9996C1208.8100000000002 80.4925 1217.3600000000001 88.9984 1227.9 88.9984C1238.45 88.9984 1247 80.4925 1247 69.9996C1247 59.5064 1238.45 51.0001 1227.9 51.0001ZM1240.91 76.3416C1240.5800000000002 77.7679 1239.41 78.8205 1238 78.9767C1234.66 79.3489 1231.27 79.35079999999999 1227.9 79.3489C1224.5300000000002 79.3508 1221.15 79.3489 1217.8000000000002 78.9767C1216.39 78.8205 1215.2200000000003 77.7679 1214.89 76.3416C1214.42 74.3094 1214.42 72.0912 1214.42 69.9996C1214.42 67.9075 1214.43 65.6895 1214.9 63.6576C1215.23 62.231 1216.4 61.1787 1217.8100000000002 61.0216C1221.15 60.6496 1224.5400000000002 60.647999999999996 1227.91 60.6496C1231.28 60.647999999999996 1234.66 60.6496 1238 61.0216C1239.42 61.1787 1240.59 62.231 1240.92 63.6576C1241.39 65.6895 1241.39 67.9077 1241.39 69.9996C1241.39 72.09100000000001 1241.38 74.3094 1240.91 76.3416Z " fill="#ffffff" transform="matrix(1,0,0,1,-1208,-51)"></path></svg>